<svg xmlns="http://www.w3.org/2000/svg" viewBox="0 0 96 184" width="96" height="184" fill="none" stroke-linecap="round" stroke-linejoin="round">
  <!-- Tall window (snow). Rod y 6 (x 4-92). Casing x 14-82 / y 12-168. Glass x 21.5-74.5 / y 18.5-161.5. Mullion y 112-116.6. Sill y 165.5-171.5 (x 9-87), lower lip to 176.5. Curtains x 3-24 and 72-93, to y 164.5. Ids are prefixed wsn- so two windows can be inlined on one page. -->
  <defs><clipPath id="wsn-glass"><rect x="21.5" y="18.5" width="53" height="143"/></clipPath><linearGradient id="wsn-sky" x1="0" y1="18.5" x2="0" y2="161.5" gradientUnits="userSpaceOnUse"><stop offset="0" stop-color="#C3CBDB"/><stop offset="1" stop-color="#E4E8F0"/></linearGradient><linearGradient id="wsn-sh" x1="0" y1="18.5" x2="0" y2="161.5" gradientUnits="userSpaceOnUse"><stop offset="0" stop-color="#B4BDCF"/><stop offset="1" stop-color="#CFD6E3"/></linearGradient></defs>
  <rect x="14" y="12" width="68" height="156" rx="1.6" fill="#FFF7EA" stroke="#D9C6A5" stroke-width="1.5"/>
  <rect x="19" y="16.5" width="58" height="147.5" rx="1" fill="#F3E6D0" stroke="#D9C6A5" stroke-width="1.1"/>
  <path d="M16.2 14.6 H79.6 M16.2 14.6 V165.4" stroke="#FFFEFB" stroke-width="1"/>
  <g clip-path="url(#wsn-glass)"><rect x="21.5" y="18.5" width="53" height="143" fill="url(#wsn-sky)"/><rect x="21.5" y="18.5" width="53" height="2.4" fill="#B4BDCF"/><rect x="21.5" y="18.5" width="1.8" height="143" fill="url(#wsn-sh)"/><circle cx="55" cy="40" r="11" fill="#FFFFFF" opacity=".35"/><path d="M21.5 163.5 V99.5 C22.6 94.6 30 92.4 32.6 97.6 C35 95.4 40.6 96.4 41.6 102 C42.6 103.4 43.4 105 44 106.6 C44.6 99.2 51.8 96.6 54 100.2 C53.6 89.4 63.4 85 66.2 91.2 C67.6 83.4 74.5 80.4 74.5 86 V163.5 Z" transform="translate(0 -2.2)" fill="#FFFFFF" stroke="#C9D3E0" stroke-width="1"/><path d="M21.5 163.5 V99.5 C22.6 94.6 30 92.4 32.6 97.6 C35 95.4 40.6 96.4 41.6 102 C42.6 103.4 43.4 105 44 106.6 C44.6 99.2 51.8 96.6 54 100.2 C53.6 89.4 63.4 85 66.2 91.2 C67.6 83.4 74.5 80.4 74.5 86 V163.5 Z" fill="#9DB8A8" stroke="#7F9C8C" stroke-width="1.1"/><rect x="21.5" y="116.6" width="53" height="1.8" fill="#90AC9C"/><path d="M21.5 163.5 V128 C24.4 120.8 33 120.2 36 126 C39.4 119.8 50.4 119.8 53.6 126 C56.6 120.2 66.6 119.8 70 125.6 C71.8 123.8 73.8 124 74.5 125 V163.5 Z" transform="translate(0 -2.2)" fill="#FFFFFF" stroke="#C9D3E0" stroke-width="1"/><path d="M21.5 163.5 V128 C24.4 120.8 33 120.2 36 126 C39.4 119.8 50.4 119.8 53.6 126 C56.6 120.2 66.6 119.8 70 125.6 C71.8 123.8 73.8 124 74.5 125 V163.5 Z" fill="#82A293" stroke="#68897A" stroke-width="1.1"/><path d="M21.5 163.5 V146 C25.4 136.2 39 135.6 43 143 C47.4 134.6 63 134.6 67 142 C69.4 139 73.4 139.4 74.5 141 V163.5 Z" transform="translate(0 -2.2)" fill="#FFFFFF" stroke="#C9D3E0" stroke-width="1"/><path d="M21.5 163.5 V146 C25.4 136.2 39 135.6 43 143 C47.4 134.6 63 134.6 67 142 C69.4 139 73.4 139.4 74.5 141 V163.5 Z" fill="#6C8F80" stroke="#56796B" stroke-width="1.1"/><path d="M21.5 163.5 V154 C30 150.5 42 151.5 50 153.5 C58 155.5 68 151.5 74.5 152.5 V163.5 Z" fill="#F7F9FC" stroke="#D3DBE6" stroke-width="1"/><circle cx="27" cy="26" r="1.6" fill="#FFFFFF" opacity="0.8"/><circle cx="37" cy="33" r="1.25" fill="#FFFFFF" opacity="0.95"/><circle cx="49" cy="24" r="1.25" fill="#FFFFFF" opacity="0.8"/><circle cx="61" cy="30" r="1.6" fill="#FFFFFF" opacity="0.95"/><circle cx="70" cy="22" r="1.25" fill="#FFFFFF" opacity="0.8"/><circle cx="31" cy="46" r="1.25" fill="#FFFFFF" opacity="0.95"/><circle cx="44" cy="42" r="1.6" fill="#FFFFFF" opacity="0.8"/><circle cx="57" cy="48" r="1.25" fill="#FFFFFF" opacity="0.95"/><circle cx="68" cy="40" r="1.25" fill="#FFFFFF" opacity="0.8"/><circle cx="25" cy="62" r="1.6" fill="#FFFFFF" opacity="0.95"/><circle cx="39" cy="58" r="1.25" fill="#FFFFFF" opacity="0.8"/><circle cx="52" cy="66" r="1.25" fill="#FFFFFF" opacity="0.95"/><circle cx="65" cy="60" r="1.6" fill="#FFFFFF" opacity="0.8"/><circle cx="72" cy="74" r="1.25" fill="#FFFFFF" opacity="0.95"/><circle cx="33" cy="78" r="1.25" fill="#FFFFFF" opacity="0.8"/><circle cx="46" cy="84" r="1.6" fill="#FFFFFF" opacity="0.95"/><circle cx="60" cy="80" r="1.25" fill="#FFFFFF" opacity="0.8"/><circle cx="28" cy="96" r="1.25" fill="#FFFFFF" opacity="0.95"/><circle cx="41" cy="104" r="1.6" fill="#FFFFFF" opacity="0.8"/><circle cx="70" cy="98" r="1.25" fill="#FFFFFF" opacity="0.95"/><circle cx="55" cy="108" r="1.25" fill="#FFFFFF" opacity="0.8"/><circle cx="36" cy="124" r="1.6" fill="#FFFFFF" opacity="0.95"/><circle cx="63" cy="128" r="1.25" fill="#FFFFFF" opacity="0.8"/><circle cx="48" cy="140" r="1.25" fill="#FFFFFF" opacity="0.95"/><circle cx="30" cy="146" r="1.6" fill="#FFFFFF" opacity="0.8"/><circle cx="69" cy="150" r="1.25" fill="#FFFFFF" opacity="0.95"/><path d="M29.5 18.5 L40.5 18.5 L25.5 70 L21.5 70 Z" fill="#FFFFFF" opacity=".12"/></g>
  <rect x="20.9" y="112" width="54.2" height="4.6" fill="#FFF7EA" stroke="#D9C6A5" stroke-width="1.2"/>
  <path d="M23 113.5 H73" stroke="#FFFEFB" stroke-width="1"/>
  <rect x="21.5" y="18.5" width="53" height="143" stroke="#D9C6A5" stroke-width="1.3"/>
  <rect x="13" y="171.5" width="70" height="5" rx="1.2" fill="#F3E6D0" stroke="#D9C6A5" stroke-width="1.3"/>
  <rect x="9" y="165.5" width="78" height="6.2" rx="1.8" fill="#FFF7EA" stroke="#D9C6A5" stroke-width="1.5"/>
  <path d="M12 167.4 H84" stroke="#FFFEFB" stroke-width="1.1"/>
  <path d="M5 6 H91" stroke="#B98632" stroke-width="4.4"/><path d="M5 6 H91" stroke="#E7BC6E" stroke-width="2.2"/><path d="M8 5.4 H88" stroke="#F6DC9C" stroke-width=".9"/>
  <circle cx="3.6" cy="6" r="2.9" fill="#E7BC6E" stroke="#B98632" stroke-width="1.1"/><circle cx="2.9" cy="5.2" r=".9" fill="#F6DC9C"/>
  <circle cx="92.4" cy="6" r="2.9" fill="#E7BC6E" stroke="#B98632" stroke-width="1.1"/><circle cx="91.7" cy="5.2" r=".9" fill="#F6DC9C"/>
  <g><path d="M3.6 11.2 C5.4 9.6 8 9.6 10 11 C12 9.6 14.8 9.6 16.8 11 C18.6 9.8 20.6 10 21.2 11.4 C22.6 50 24 100 23.8 161.8 C22.4 164.1 19.8 164.5 17.6 163.4 C15.6 162.3 13.2 162.4 11.4 163.6 C9.4 164.9 6.8 164.8 5 163.2 C3.4 160 3.7 110 3.4 50 C3.3 30 3.5 18 3.6 11.2 Z" fill="#FFF7EA" stroke="#D9C6A5" stroke-width="1.4"/><path d="M8.4 11.8 C10 60 10.3 115 9.9 163.7 L12.9 163.1 C13.3 115 13 60 11.2 11.4 Z" fill="#F3E6D0"/><path d="M14.8 11.4 C16.6 60 17.1 115 16.9 163.3 L19.5 163.7 C19.7 115 19.2 60 17.4 11.3 Z" fill="#F3E6D0"/><path d="M8.4 12 C10 60 10.3 115 9.9 163.4" stroke="#D9C6A5" stroke-width="1" opacity=".7"/><path d="M14.8 11.6 C16.6 60 17.1 115 16.9 163.1" stroke="#D9C6A5" stroke-width="1" opacity=".7"/><path d="M20.6 15 C21.9 55 23 105 22.6 158" stroke="#FFFEFB" stroke-width="1.1"/><path d="M5.4 159.9 C7.4 161.3 9.4 161.2 11.3 160.2 C13.3 159.2 15.5 159.2 17.5 160.2 C19.5 161.2 21.5 161 23 159.7" stroke="#F3E6D0" stroke-width="1.1"/><rect x="4.3" y="2.6" width="2.6" height="8.4" rx="1.3" fill="#D9A650" stroke="#B98632" stroke-width="1"/><rect x="11.1" y="2.6" width="2.6" height="8.4" rx="1.3" fill="#D9A650" stroke="#B98632" stroke-width="1"/><rect x="17.9" y="2.6" width="2.6" height="8.4" rx="1.3" fill="#D9A650" stroke="#B98632" stroke-width="1"/></g>
  <g transform="translate(96 0) scale(-1 1)"><path d="M3.6 11.2 C5.4 9.6 8 9.6 10 11 C12 9.6 14.8 9.6 16.8 11 C18.6 9.8 20.6 10 21.2 11.4 C22.6 50 24 100 23.8 161.8 C22.4 164.1 19.8 164.5 17.6 163.4 C15.6 162.3 13.2 162.4 11.4 163.6 C9.4 164.9 6.8 164.8 5 163.2 C3.4 160 3.7 110 3.4 50 C3.3 30 3.5 18 3.6 11.2 Z" fill="#FFF7EA" stroke="#D9C6A5" stroke-width="1.4"/><path d="M8.4 11.8 C10 60 10.3 115 9.9 163.7 L12.9 163.1 C13.3 115 13 60 11.2 11.4 Z" fill="#F3E6D0"/><path d="M14.8 11.4 C16.6 60 17.1 115 16.9 163.3 L19.5 163.7 C19.7 115 19.2 60 17.4 11.3 Z" fill="#F3E6D0"/><path d="M8.4 12 C10 60 10.3 115 9.9 163.4" stroke="#D9C6A5" stroke-width="1" opacity=".7"/><path d="M14.8 11.6 C16.6 60 17.1 115 16.9 163.1" stroke="#D9C6A5" stroke-width="1" opacity=".7"/><path d="M20.6 15 C21.9 55 23 105 22.6 158" stroke="#FFFEFB" stroke-width="1.1"/><path d="M5.4 159.9 C7.4 161.3 9.4 161.2 11.3 160.2 C13.3 159.2 15.5 159.2 17.5 160.2 C19.5 161.2 21.5 161 23 159.7" stroke="#F3E6D0" stroke-width="1.1"/><rect x="4.3" y="2.6" width="2.6" height="8.4" rx="1.3" fill="#D9A650" stroke="#B98632" stroke-width="1"/><rect x="11.1" y="2.6" width="2.6" height="8.4" rx="1.3" fill="#D9A650" stroke="#B98632" stroke-width="1"/><rect x="17.9" y="2.6" width="2.6" height="8.4" rx="1.3" fill="#D9A650" stroke="#B98632" stroke-width="1"/></g>
</svg>
